{"title":"XXY (2007) BRRIP 1080P UNRATED","uid":15349142,"size":4793527159,"categoryP":"video","categoryS":"hd___movies","magnet":"?xt=urn:btih:956c0242eb3705c7d312dc7a25287361b19333b6&amp;dn=XXY+%282007%29+BRRIP+1080P+UNRATED&amp;tr=udp%3A%2F%2Ftracker.leechers-paradise.org%3A6969&amp;tr=udp%3A%2F%2Fzer0day.ch%3A1337&amp;tr=udp%3A%2F%2Fopen.demonii.com%3A1337&amp;tr=udp%3A%2F%2Ftracker.coppersurfer.tk%3A6969&amp;tr=udp%3A%2F%2Fexodus.desync.com%3A6969","seeders":1,"leechers":0,"uploader":"jmanwf","files":3,"time":1468915066,"description":"Description\r\nStoryline\r\nIn a small coastal town of fishermen in Uruguay, the biologist Kraken works and lives in a house at the sea side with his wife Suli and their aggressive fifteen year-old daughter Alex. When Suli welcomes her former best friend Erika that comes with her husband, the surgeon Ramiro and their teenage son Alvaro to spend a couple of days with her family, Kraken learns that his wife invited Ramiro to operate Alex. Meanwhile Alex and Alvaro feel attracted by each other; however, Alvaro finds that Alex is hermaphrodite and she finds that Alvaro is gay. But the troubled and outcast Alex has the right to choose what gender she wants for her.\r\n\r\n\r\nVideo\r\nID : 1\r\nFormat : AVC\r\nFormat/Info : Advanced Video Codec\r\nFormat profile :   \r\nFormat settings, CABAC : Yes\r\nFormat settings, ReFrames : 3 frames\r\nCodec ID : V_MPEG4/ISO/AVC\r\nDuration : 1h 30mn\r\nBit rate mode : Variable\r\nBit rate : 6 379 Kbps\r\nMaximum bit rate : 30.0 Mbps\r\nWidth : 1 920 pixels\r\nHeight : 1 080 pixels\r\nDisplay aspect ratio : 16:9\r\nFrame rate mode : Constant\r\nFrame rate : 23.976 (24000/1001) fps\r\nColor space : YUV\r\nChroma subsampling : 4:2:0\r\nBit depth : 8 bits\r\nScan type : Progressive\r\nBits/(Pixel*Frame) : 0.128\r\nStream size : 4.04 GiB (91%)\r\nLanguage : Spanish\r\nDefault : Yes\r\nForced : No\r\nColor range : Limited\r\nColor primaries : BT.709\r\nTransfer characteristics : BT.709\r\nMatrix coefficients : BT.709\r\n\r\nAudio\r\nID : 2\r\nFormat : AC-3\r\nFormat/Info : Audio Coding 3\r\nMode extension : CM (complete main)\r\nFormat settings, Endianness : Big\r\nCodec ID : A_AC3\r\nDuration : 1h 30mn\r\nBit rate mode : Constant\r\nBit rate : 640 Kbps\r\nChannel(s) : 6 channels\r\nChannel positions : Front: L C R, Side: L R, LFE\r\nSampling rate : 48.0 KHz\r\nFrame rate : 31.250 fps (1536 spf)\r\nCompression mode : Lossy\r\nStream size : 415 MiB (9%)\r\nLanguage : Spanish\r\nDefault : Yes\r\nForced : No\r\n\r\nText\r\nID : 3\r\nFormat : PGS\r\nMuxing mode : zlib\r\nCodec ID : S_HDMV/PGS\r\nCodec ID/Info : Picture based subtitle format used on BDs/HD-DVDs\r\nDuration : 1h 22mn\r\nBit rate : 3 000 bps\r\nCount of elements : 1042\r\nStream size : 1.78 MiB (0%)\r\nLanguage : English\r\nDefault : No\r\nForced : No\r\n\r\n\r\n\r\n\r\n \nhttps://s31.postimg.org/9sjcoouh7/image.jpg\r\n\r\n \nhttps://s31.postimg.org/45mzr7ryj/image.jpg\r\n\r\n \nhttps://s31.postimg.org/j2vgs856z/image.jpg","torrent":{"xt":"urn:btih:956c0242eb3705c7d312dc7a25287361b19333b6","amp;dn":"XXY+%282007%29+BRRIP+1080P+UNRATED","amp;tr":["udp%3A%2F%2Ftracker.leechers-paradise.org%3A6969","udp%3A%2F%2Fzer0day.ch%3A1337","udp%3A%2F%2Fopen.demonii.com%3A1337","udp%3A%2F%2Ftracker.coppersurfer.tk%3A6969","udp%3A%2F%2Fexodus.desync.com%3A6969"],"infoHash":"956c0242eb3705c7d312dc7a25287361b19333b6","infoHashBuffer":{"type":"Buffer","data":[149,108,2,66,235,55,5,199,211,18,220,122,37,40,115,97,177,147,51,182]},"announce":[],"urlList":[]}}